<?xml version="1.0" standalone="no"?>
<!DOCTYPE svg PUBLIC "-//W3C//DTD SVG 20010904//EN"
 "http://www.w3.org/TR/2001/REC-SVG-20010904/DTD/svg10.dtd">
<svg version="1.0" xmlns="http://www.w3.org/2000/svg"
 width="200.000000pt" height="80.000000pt" viewBox="0 0 200.000000 80.000000"
 preserveAspectRatio="xMidYMid meet">

<g transform="translate(0.000000,80.000000) scale(0.100000,-0.100000)"
fill="#000000" stroke="none">
<path d="M160 590 l0 -189 -50 -168 c-28 -92 -53 -176 -56 -185 -5 -16 2 -18
44 -18 l49 0 22 75 c13 41 26 75 30 75 3 0 23 -34 44 -75 l37 -75 60 0 60 0
-35 70 c-19 38 -35 72 -35 75 0 3 36 5 80 5 44 0 80 -1 80 -2 0 -2 -9 -32 -20
-66 -11 -35 -20 -68 -20 -73 0 -6 23 -9 52 -7 l52 3 21 70 21 70 122 3 c94 2
122 0 122 -10 0 -7 -9 -41 -19 -75 l-19 -63 54 0 53 0 22 75 c19 66 25 75 46
75 22 0 23 -3 23 -75 l0 -75 45 0 46 0 47 75 c43 68 50 75 80 75 28 0 32 -3
27 -23 -14 -63 -25 -113 -25 -119 0 -5 24 -8 53 -8 l53 0 15 73 c13 65 16 72
39 75 23 3 27 -2 38 -43 24 -90 89 -121 237 -112 112 7 140 17 149 54 27 109
21 102 84 105 l57 3 3 298 2 297 -215 0 -215 0 -2 -197 c-2 -146 -6 -197 -16
-201 -9 -3 -12 41 -12 197 l0 201 -210 0 -210 0 0 -170 c0 -144 -2 -170 -15
-170 -13 0 -15 26 -15 170 l0 170 -215 0 -215 0 0 -170 c0 -144 -2 -170 -15
-170 -13 0 -15 26 -15 170 l0 170 -210 0 -210 0 0 -190z m400 -6 c0 -168 -1
-180 -31 -275 l-31 -99 -93 0 c-69 0 -94 3 -98 14 -3 8 33 51 89 107 52 51 94
97 94 101 0 5 -26 8 -59 8 l-58 0 -72 -75 c-39 -41 -73 -75 -75 -75 -3 0 4 25
15 57 29 86 27 93 -26 93 l-45 0 0 160 0 160 195 0 195 0 0 -176z m460 16 l0
-160 -49 0 -48 0 -33 -115 -34 -115 -40 0 c-38 0 -39 1 -20 15 44 30 69 128
44 175 -14 26 -63 40 -141 40 l-69 0 0 160 0 160 195 0 195 0 0 -160z m460
-41 c0 -181 -2 -205 -19 -233 -11 -17 -25 -50 -32 -73 -10 -35 -17 -43 -36
-43 -28 0 -28 -5 -3 115 11 53 20 101 20 106 0 5 -37 9 -83 9 l-82 0 -74 -115
c-40 -63 -75 -115 -77 -115 -2 0 -4 124 -4 275 l0 275 195 0 195 0 0 -201z
m450 -74 l0 -275 -46 0 c-45 0 -46 0 -39 30 l7 30 -101 0 -101 0 -6 -30 c-6
-28 -9 -30 -55 -30 -49 0 -49 0 -43 27 10 41 45 101 69 117 53 35 117 28 130
-14 5 -17 15 -20 66 -20 l59 0 0 39 c0 74 -72 109 -196 98 -35 -4 -77 -13 -93
-22 -17 -8 -32 -15 -36 -15 -3 0 -5 77 -5 170 l0 170 195 0 195 0 0 -275z
m-1182 -147 c5 -40 -36 -78 -84 -78 -34 0 -36 2 -30 26 4 15 10 40 13 56 5 28
8 29 52 26 42 -3 46 -5 49 -30z m248 -125 c-2 -3 -11 -3 -19 -1 -12 3 -12 11
2 58 l16 55 3 -54 c2 -29 1 -55 -2 -58z m271 47 c-10 -45 -17 -56 -35 -58 -12
-2 -22 1 -22 7 0 11 63 111 67 107 1 -1 -4 -26 -10 -56z m440 -115 c-8 -28
-16 -36 -43 -41 -59 -11 -124 23 -124 65 0 7 33 11 89 11 l89 0 -11 -35z"/>
</g>
</svg>
