<?xml version="1.0" standalone="no"?>
<!DOCTYPE svg PUBLIC "-//W3C//DTD SVG 20010904//EN"
 "http://www.w3.org/TR/2001/REC-SVG-20010904/DTD/svg10.dtd">
<svg version="1.0" xmlns="http://www.w3.org/2000/svg"
 width="731.000000pt" height="373.000000pt" viewBox="0 0 731.000000 373.000000"
 preserveAspectRatio="xMidYMid meet">

<g transform="translate(0.000000,373.000000) scale(0.100000,-0.100000)"
fill="#000000" stroke="none">
<path d="M0 1865 l0 -1865 3655 0 3655 0 0 1865 0 1865 -3655 0 -3655 0 0
-1865z m2959 34 c40 -14 61 -54 61 -119 0 -38 -4 -50 -15 -50 -11 0 -15 12
-15 50 0 41 -5 56 -25 75 -44 45 -116 29 -141 -30 -20 -49 -20 -372 0 -420 18
-43 52 -60 101 -51 49 9 65 49 65 156 l0 80 -40 0 c-29 0 -40 4 -40 15 0 12
13 15 55 15 l55 0 0 -145 c0 -122 -2 -145 -15 -145 -9 0 -15 9 -15 23 -1 19
-2 20 -11 5 -12 -22 -72 -39 -109 -31 -16 3 -41 18 -57 35 l-28 29 0 224 0
223 25 27 c41 45 88 55 149 34z m-1039 -130 c0 -71 4 -128 9 -125 4 3 41 60
80 126 65 109 93 142 106 128 3 -2 -31 -63 -75 -136 -44 -72 -80 -134 -80
-137 0 -3 36 -69 81 -146 44 -78 78 -143 75 -146 -14 -14 -37 16 -111 143
l-80 139 -3 -142 c-2 -118 -5 -143 -17 -143 -13 0 -15 41 -15 285 0 247 2 285
15 285 13 0 15 -21 15 -131z m427 107 c28 -24 28 -25 28 -150 0 -123 0 -126
-27 -153 -23 -23 -38 -28 -93 -31 l-65 -4 0 -104 c0 -86 -3 -104 -15 -104 -13
0 -15 38 -15 285 l0 285 79 0 c70 0 83 -3 108 -24z m170 -191 c23 -115 45
-221 49 -235 6 -25 14 5 85 348 21 101 22 102 50 102 l29 0 0 -285 c0 -278 0
-285 -20 -285 -19 0 -20 7 -21 248 l-1 247 -52 -244 c-28 -135 -56 -246 -62
-248 -12 -4 -18 19 -80 317 l-39 185 -3 -252 c-2 -216 -5 -253 -17 -253 -13 0
-15 40 -15 286 l0 285 27 -3 c27 -3 27 -5 70 -213z m703 -61 l0 -276 55 7 c57
7 95 1 95 -16 0 -5 -43 -9 -95 -9 l-95 0 0 285 c0 278 0 285 20 285 20 0 20
-7 20 -276z m472 121 l3 -156 65 111 c43 73 71 110 82 110 19 0 16 -6 -80
-162 l-41 -66 70 -123 c38 -67 69 -124 69 -126 0 -1 -8 -3 -17 -3 -12 0 -39
38 -83 118 l-65 117 -3 -118 c-2 -106 -4 -118 -20 -115 -15 3 -17 28 -20 286
-3 278 -3 282 17 282 20 0 21 -7 23 -155z m498 88 l0 -66 23 21 c34 32 100 30
132 -3 25 -24 25 -24 25 -240 0 -184 -2 -215 -15 -215 -13 0 -15 30 -15 208 0
198 -1 210 -20 227 -30 27 -88 25 -111 -4 -17 -21 -19 -43 -19 -227 0 -196 -1
-204 -20 -204 -19 0 -19 9 -20 278 0 153 3 282 7 285 3 4 12 7 20 7 9 0 13
-18 13 -67z m-606 -56 c19 -26 21 -43 24 -238 3 -206 3 -209 -17 -209 -15 0
-21 6 -21 22 0 20 -1 20 -12 5 -32 -41 -103 -43 -145 -4 -20 18 -23 30 -23 97
0 92 9 104 111 155 l69 35 0 53 c0 63 -13 84 -57 93 -45 9 -83 -30 -83 -86 0
-29 -4 -40 -15 -40 -11 0 -15 11 -15 41 0 79 32 110 109 106 46 -2 57 -6 75
-30z m487 4 c28 -28 29 -33 29 -120 l0 -91 -95 0 -95 0 0 -84 c0 -97 14 -123
70 -132 27 -4 42 -1 63 16 23 18 27 29 27 71 0 37 4 49 15 49 21 0 21 -98 0
-127 -35 -51 -144 -48 -184 4 -19 24 -21 39 -21 205 l0 180 29 29 c25 25 37
29 81 29 44 0 56 -4 81 -29z m530 19 c41 -23 49 -60 49 -232 0 -144 -2 -167
-20 -195 -49 -81 -185 -55 -204 38 -10 49 -7 305 3 332 18 46 50 67 104 67 26
0 57 -5 68 -10z m131 -201 c3 -208 3 -211 27 -230 31 -26 64 -24 98 5 l28 24
3 206 c3 171 6 206 18 206 12 0 14 -38 14 -240 0 -207 -2 -240 -15 -240 -9 0
-15 9 -15 22 l0 21 -22 -20 c-13 -11 -35 -23 -50 -27 -39 -9 -96 17 -108 49
-6 15 -10 118 -10 231 0 171 2 204 14 204 12 0 15 -35 18 -211z m417 187 c30
-32 42 -116 17 -116 -9 0 -16 6 -17 13 -2 39 -9 70 -19 82 -26 31 -99 26 -122
-9 -4 -6 -8 -29 -8 -50 0 -35 6 -45 47 -80 128 -111 133 -118 133 -182 0 -37
-6 -68 -15 -81 -35 -50 -146 -48 -179 2 -21 32 -22 115 -1 115 11 0 15 -12 15
-45 0 -63 27 -89 83 -82 50 7 67 28 67 81 0 51 -20 82 -86 134 -77 61 -94 87
-94 144 0 70 29 98 103 98 44 0 58 -4 76 -24z m268 0 c26 -23 28 -29 31 -120
l4 -96 -96 0 -96 0 0 -85 c0 -78 2 -88 25 -110 55 -56 135 -15 135 70 0 33 4
45 15 45 11 0 15 -12 15 -50 0 -40 -5 -56 -28 -81 -23 -26 -35 -31 -75 -31
-58 -1 -97 24 -114 73 -15 42 -17 280 -3 331 15 52 51 78 111 78 36 0 55 -6
76 -24z"/>
<path d="M2190 1726 l0 -156 55 0 c86 0 95 14 95 153 0 136 -7 148 -95 155
l-55 4 0 -156z"/>
<path d="M3515 1583 c-84 -42 -95 -57 -95 -127 1 -72 15 -95 62 -102 27 -5 40
-1 62 17 26 24 27 25 24 130 l-3 107 -50 -25z"/>
<path d="M3955 1779 c-37 -21 -45 -41 -45 -111 l0 -68 80 0 80 0 0 69 c0 51
-5 74 -17 90 -22 25 -71 35 -98 20z"/>
<path d="M4503 1780 c-12 -5 -26 -17 -32 -28 -5 -10 -11 -94 -12 -187 l-2
-168 27 -24 c28 -24 45 -27 84 -17 43 12 52 50 52 218 0 146 -1 156 -22 180
-26 29 -63 39 -95 26z"/>
<path d="M5303 1780 c-32 -13 -43 -41 -43 -114 l0 -66 81 0 81 0 -4 75 c-2 49
-9 80 -18 90 -20 19 -69 27 -97 15z"/>
</g>
</svg>
